<svg width="84" height="76" viewBox="0 0 84 76" fill="none" xmlns="http://www.w3.org/2000/svg">
<rect x="39.7896" y="70.8142" width="4.42105" height="4.42589" fill="#435381"/>
<rect x="44.2104" y="66.3884" width="4.42105" height="4.42589" fill="#435381"/>
<rect x="35.1958" y="70.8997" width="4.42589" height="4.42105" transform="rotate(-90 35.1958 70.8997)" fill="#435381"/>
<rect width="4.42105" height="4.42589" transform="matrix(1 0 0 -1 48.6313 66.3884)" fill="#435381"/>
<rect width="4.42589" height="4.42105" transform="matrix(0 -1 -1 0 35.2217 66.45)" fill="#435381"/>
<rect width="4.42105" height="4.42589" transform="matrix(1 0 0 -1 53.0522 61.9624)" fill="#435381"/>
<rect width="4.42589" height="4.42105" transform="matrix(0 -1 -1 0 30.8242 62.0002)" fill="#435381"/>
<rect width="4.42105" height="4.42589" transform="matrix(1 0 0 -1 57.4736 57.5366)" fill="#435381"/>
<rect width="4.42589" height="4.42105" transform="matrix(0 -1 -1 0 26.4292 57.5496)" fill="#435381"/>
<rect x="61.8945" y="48.6848" width="4.42105" height="4.42589" fill="#435381"/>
<rect x="17.6108" y="53.0977" width="4.42589" height="4.42105" transform="rotate(-90 17.6108 53.0977)" fill="#435381"/>
<rect x="66.3159" y="44.259" width="4.42105" height="4.42589" fill="#435381"/>
<rect x="13.2134" y="48.647" width="4.42589" height="4.42105" transform="rotate(-90 13.2134 48.647)" fill="#435381"/>
<rect width="4.42105" height="4.42589" transform="matrix(1 0 0 -1 70.7368 44.259)" fill="#435381"/>
<rect width="4.42589" height="4.42105" transform="matrix(0 -1 -1 0 13.2393 44.1973)" fill="#435381"/>
<rect width="4.42105" height="4.42589" transform="matrix(1 0 0 -1 75.1577 39.833)" fill="#435381"/>
<rect width="4.42589" height="4.42105" transform="matrix(0 -1 -1 0 8.84229 39.7476)" fill="#435381"/>
<rect width="4.42105" height="4.42589" transform="matrix(1 0 0 -1 79.5791 35.4072)" fill="#435381"/>
<rect width="4.42105" height="4.42589" transform="matrix(1 0 0 -1 0 35.4072)" fill="#435381"/>
<rect width="4.42105" height="4.42589" transform="matrix(1 0 0 -1 79.5791 30.9812)" fill="#435381"/>
<rect width="4.42105" height="4.42589" transform="matrix(1 0 0 -1 0 30.9812)" fill="#435381"/>
<rect width="4.42105" height="4.42589" transform="matrix(1 0 0 -1 79.5791 26.5554)" fill="#435381"/>
<rect width="4.42105" height="4.42589" transform="matrix(1 0 0 -1 0 26.5554)" fill="#435381"/>
<rect width="4.42105" height="4.42589" transform="matrix(1 0 0 -1 79.5791 22.1294)" fill="#435381"/>
<rect width="4.42105" height="4.42589" transform="matrix(1 0 0 -1 75.1577 17.7036)" fill="#435381"/>
<rect width="4.42105" height="4.42589" transform="matrix(1 0 0 -1 70.7368 13.2776)" fill="#435381"/>
<rect width="4.42105" height="4.42589" transform="matrix(1 0 0 -1 66.3159 8.85181)" fill="#435381"/>
<rect width="4.42105" height="4.42589" transform="matrix(1 0 0 -1 0 22.1294)" fill="#435381"/>
<rect width="4.42105" height="4.42589" transform="matrix(1 0 0 -1 4.4209 17.7036)" fill="#435381"/>
<rect width="4.42105" height="4.42589" transform="matrix(1 0 0 -1 8.84229 13.2776)" fill="#435381"/>
<rect width="4.42105" height="4.42589" transform="matrix(1 0 0 -1 13.2632 8.85181)" fill="#435381"/>
<rect width="4.42105" height="4.42589" transform="matrix(1 0 0 -1 39.7896 70.8142)" fill="#435381"/>
<rect width="48.6315" height="4.42589" transform="matrix(1 0 0 -1 17.6841 4.42578)" fill="#435381"/>
<rect x="39.7896" y="61.9624" width="4.42105" height="4.42589" fill="#00AAFF"/>
<rect x="4.4209" y="22.1294" width="75.1578" height="4.42589" fill="#00AAFF"/>
<rect x="35.3687" y="53.1108" width="4.42105" height="8.85179" fill="#00AAFF"/>
<rect x="44.2104" y="53.1108" width="4.42105" height="8.85179" fill="#00AAFF"/>
<rect x="30.9473" y="4.42578" width="4.42105" height="8.85179" fill="#00AAFF"/>
<rect x="48.6313" y="4.42578" width="4.42105" height="8.85179" fill="#00AAFF"/>
<rect x="30.9473" y="39.833" width="4.42105" height="13.2777" fill="#00AAFF"/>
<rect x="48.6313" y="39.833" width="4.42105" height="13.2777" fill="#00AAFF"/>
<rect x="26.5264" y="13.2776" width="4.42105" height="26.5554" fill="#00AAFF"/>
<rect x="53.0522" y="13.2776" width="4.42105" height="26.5554" fill="#00AAFF"/>
<rect x="35.3687" y="61.9624" width="4.42105" height="4.42589" fill="#E3E3E3"/>
<rect x="44.2104" y="61.9624" width="4.42105" height="4.42589" fill="#E3E3E3"/>
<rect x="39.7896" y="53.1108" width="4.42105" height="8.85179" fill="white"/>
<rect x="35.3687" y="39.833" width="13.2631" height="13.2777" fill="white"/>
<rect x="30.9473" y="26.5554" width="22.1052" height="13.2777" fill="white"/>
<rect x="30.9473" y="13.2776" width="22.1052" height="8.85179" fill="#BCE3F5"/>
<rect x="35.3687" y="4.42578" width="13.2631" height="8.85179" fill="#BCE3F5"/>
<rect x="17.6841" y="4.42578" width="13.2631" height="4.42589" fill="white"/>
<rect x="13.2632" y="8.85181" width="17.6842" height="4.42589" fill="white"/>
<rect x="8.84229" y="13.2776" width="17.6842" height="4.42589" fill="white"/>
<rect x="4.4209" y="17.7036" width="22.1052" height="4.42589" fill="white"/>
<rect x="4.4209" y="26.5554" width="22.1052" height="4.42589" fill="#BCE3F5"/>
<rect x="4.4209" y="30.9812" width="22.1052" height="4.42589" fill="#BCE3F5"/>
<rect x="8.84229" y="35.4072" width="17.6842" height="4.42589" fill="#BCE3F5"/>
<rect x="13.2632" y="39.833" width="17.6842" height="4.42589" fill="#BCE3F5"/>
<rect x="17.6841" y="44.259" width="13.2631" height="4.42589" fill="#BCE3F5"/>
<rect x="22.1055" y="48.6848" width="8.8421" height="4.42589" fill="#BCE3F5"/>
<rect x="26.5264" y="53.1108" width="8.8421" height="4.42589" fill="#BCE3F5"/>
<rect x="30.9473" y="57.5366" width="4.42105" height="4.42589" fill="#BCE3F5"/>
<rect x="53.0522" y="4.42578" width="13.2631" height="4.42589" fill="#77C0DF"/>
<rect x="53.0522" y="8.85181" width="17.6842" height="4.42589" fill="#77C0DF"/>
<rect x="57.4736" y="13.2776" width="17.6842" height="4.42589" fill="#77C0DF"/>
<rect x="57.4736" y="17.7036" width="22.1052" height="4.42589" fill="#77C0DF"/>
<rect x="57.4736" y="26.5554" width="22.1052" height="4.42589" fill="#77C0DF"/>
<rect x="57.4736" y="30.9812" width="22.1052" height="4.42589" fill="#77C0DF"/>
<rect x="57.4736" y="35.4072" width="17.6842" height="4.42589" fill="#77C0DF"/>
<rect x="53.0522" y="39.833" width="17.6842" height="4.42589" fill="#77C0DF"/>
<rect x="53.0522" y="44.259" width="13.2631" height="4.42589" fill="#77C0DF"/>
<rect x="53.0522" y="48.6848" width="8.8421" height="4.42589" fill="#77C0DF"/>
<rect x="48.6313" y="53.1108" width="8.8421" height="4.42589" fill="#77C0DF"/>
<rect x="48.6313" y="57.5366" width="4.42105" height="4.42589" fill="#77C0DF"/>
</svg>
